<svg xmlns="http://www.w3.org/2000/svg" xmlns:xlink="http://www.w3.org/1999/xlink" width="500" zoomAndPan="magnify" viewBox="0 0 375 112.499997" height="150" preserveAspectRatio="xMidYMid meet" version="1.0"><path fill="#f9c308" d="M 81.953125 85.242188 L 81.953125 59.246094 C 81.953125 55.96875 81.207031 53.523438 79.714844 51.910156 C 78.222656 50.296875 75.886719 49.488281 72.714844 49.488281 C 68.503906 49.488281 65.421875 50.628906 63.46875 52.902344 C 61.515625 55.175781 60.539062 58.925781 60.539062 64.160156 L 60.539062 85.242188 L 54.449219 85.242188 L 54.449219 45.050781 L 59.398438 45.050781 L 60.386719 50.550781 L 60.679688 50.550781 C 61.929688 48.570312 63.679688 47.039062 65.925781 45.949219 C 68.175781 44.863281 70.679688 44.320312 73.441406 44.320312 C 78.28125 44.320312 81.925781 45.488281 84.367188 47.824219 C 86.8125 50.15625 88.035156 53.890625 88.035156 59.023438 L 88.035156 85.242188 Z M 81.953125 85.242188 " fill-opacity="1" fill-rule="nonzero"/><path fill="#f9c308" d="M 135.234375 65.109375 C 135.234375 71.664062 133.582031 76.777344 130.28125 80.460938 C 126.980469 84.136719 122.425781 85.976562 116.609375 85.976562 C 113.011719 85.976562 109.820312 85.132812 107.035156 83.449219 C 104.25 81.761719 102.097656 79.339844 100.582031 76.1875 C 99.066406 73.03125 98.308594 69.34375 98.308594 65.109375 C 98.308594 58.5625 99.945312 53.457031 103.222656 49.800781 C 106.496094 46.148438 111.046875 44.320312 116.867188 44.320312 C 122.488281 44.320312 126.953125 46.191406 130.265625 49.929688 C 133.578125 53.667969 135.234375 58.730469 135.234375 65.109375 Z M 104.617188 65.109375 C 104.617188 70.246094 105.640625 74.15625 107.695312 76.84375 C 109.75 79.535156 112.769531 80.882812 116.753906 80.882812 C 120.738281 80.882812 123.761719 79.542969 125.828125 76.867188 C 127.894531 74.1875 128.929688 70.269531 128.929688 65.109375 C 128.929688 60.003906 127.894531 56.121094 125.828125 53.46875 C 123.761719 50.816406 120.714844 49.488281 116.683594 49.488281 C 112.695312 49.488281 109.6875 50.796875 107.660156 53.417969 C 105.628906 56.03125 104.617188 59.929688 104.617188 65.109375 Z M 104.617188 65.109375 " fill-opacity="1" fill-rule="nonzero"/><path fill="#f9c308" d="M 154.707031 85.242188 L 139.453125 45.050781 L 145.984375 45.050781 L 154.632812 68.886719 C 156.589844 74.460938 157.738281 78.078125 158.085938 79.742188 L 158.378906 79.742188 C 158.644531 78.445312 159.492188 75.761719 160.925781 71.695312 C 162.355469 67.625 165.566406 58.742188 170.554688 45.050781 L 177.078125 45.050781 L 161.824219 85.242188 Z M 154.707031 85.242188 " fill-opacity="1" fill-rule="nonzero"/><path fill="#f9c308" d="M 208.246094 85.242188 L 207.039062 79.523438 L 206.746094 79.523438 C 204.742188 82.039062 202.746094 83.746094 200.753906 84.640625 C 198.757812 85.53125 196.269531 85.976562 193.285156 85.976562 C 189.300781 85.976562 186.179688 84.949219 183.917969 82.898438 C 181.65625 80.84375 180.523438 77.921875 180.523438 74.132812 C 180.523438 66.015625 187.015625 61.761719 200 61.371094 L 206.820312 61.148438 L 206.820312 58.65625 C 206.820312 55.503906 206.140625 53.175781 204.78125 51.671875 C 203.425781 50.167969 201.257812 49.414062 198.273438 49.414062 C 194.925781 49.414062 191.136719 50.445312 186.90625 52.5 L 185.035156 47.839844 C 187.015625 46.765625 189.1875 45.921875 191.546875 45.308594 C 193.90625 44.699219 196.269531 44.394531 198.640625 44.394531 C 203.429688 44.394531 206.984375 45.457031 209.292969 47.585938 C 211.605469 49.710938 212.757812 53.121094 212.757812 57.8125 L 212.757812 85.242188 Z M 194.5 80.957031 C 198.289062 80.957031 201.261719 79.917969 203.425781 77.835938 C 205.589844 75.757812 206.671875 72.847656 206.671875 69.105469 L 206.671875 65.476562 L 200.582031 65.734375 C 195.746094 65.90625 192.253906 66.660156 190.113281 67.992188 C 187.972656 69.324219 186.90625 71.394531 186.90625 74.207031 C 186.90625 76.40625 187.570312 78.078125 188.902344 79.230469 C 190.238281 80.378906 192.101562 80.957031 194.5 80.957031 Z M 194.5 80.957031 " fill-opacity="1" fill-rule="nonzero"/><path fill="#000000" d="M 238.285156 80.957031 C 239.363281 80.957031 240.402344 80.875 241.402344 80.71875 C 242.40625 80.554688 243.199219 80.390625 243.789062 80.222656 L 243.789062 84.875 C 243.125 85.195312 242.15625 85.457031 240.871094 85.664062 C 239.589844 85.875 238.433594 85.976562 237.40625 85.976562 C 229.632812 85.976562 225.746094 81.882812 225.746094 73.691406 L 225.746094 49.78125 L 219.988281 49.78125 L 219.988281 46.847656 L 225.746094 44.320312 L 228.308594 35.738281 L 231.835938 35.738281 L 231.835938 45.050781 L 243.496094 45.050781 L 243.496094 49.78125 L 231.835938 49.78125 L 231.835938 73.433594 C 231.835938 75.855469 232.40625 77.714844 233.554688 79.011719 C 234.707031 80.308594 236.28125 80.957031 238.285156 80.957031 Z M 238.285156 80.957031 " fill-opacity="1" fill-rule="nonzero"/><path fill="#000000" d="M 268.800781 85.976562 C 262.855469 85.976562 258.167969 84.167969 254.734375 80.546875 C 251.300781 76.929688 249.582031 71.90625 249.582031 65.476562 C 249.582031 59 251.175781 53.855469 254.367188 50.039062 C 257.558594 46.226562 261.839844 44.320312 267.222656 44.320312 C 272.257812 44.320312 276.242188 45.976562 279.175781 49.292969 C 282.109375 52.601562 283.578125 56.972656 283.578125 62.398438 L 283.578125 66.246094 L 255.890625 66.246094 C 256.011719 70.964844 257.203125 74.550781 259.464844 76.996094 C 261.726562 79.4375 264.910156 80.65625 269.015625 80.65625 C 273.34375 80.65625 277.621094 79.753906 281.851562 77.945312 L 281.851562 83.375 C 279.699219 84.304688 277.664062 84.96875 275.746094 85.371094 C 273.828125 85.773438 271.511719 85.976562 268.800781 85.976562 Z M 267.148438 49.414062 C 263.917969 49.414062 261.34375 50.464844 259.425781 52.566406 C 257.507812 54.671875 256.378906 57.582031 256.039062 61.296875 L 277.046875 61.296875 C 277.046875 57.457031 276.191406 54.519531 274.480469 52.480469 C 272.769531 50.4375 270.324219 49.414062 267.148438 49.414062 Z M 267.148438 49.414062 " fill-opacity="1" fill-rule="nonzero"/><path fill="#000000" d="M 310.019531 85.976562 C 304.199219 85.976562 299.691406 84.1875 296.503906 80.609375 C 293.3125 77.027344 291.71875 71.957031 291.71875 65.402344 C 291.71875 58.679688 293.339844 53.488281 296.578125 49.820312 C 299.816406 46.152344 304.429688 44.320312 310.421875 44.320312 C 312.351562 44.320312 314.28125 44.527344 316.210938 44.945312 C 318.144531 45.359375 319.660156 45.847656 320.761719 46.410156 L 318.890625 51.582031 C 317.546875 51.042969 316.078125 50.597656 314.488281 50.242188 C 312.898438 49.886719 311.496094 49.707031 310.277344 49.707031 C 302.109375 49.707031 298.027344 54.914062 298.027344 65.328125 C 298.027344 70.269531 299.023438 74.0625 301.015625 76.703125 C 303.007812 79.339844 305.960938 80.65625 309.871094 80.65625 C 313.222656 80.65625 316.65625 79.9375 320.175781 78.496094 L 320.175781 83.886719 C 317.484375 85.28125 314.101562 85.976562 310.019531 85.976562 Z M 310.019531 85.976562 " fill-opacity="1" fill-rule="nonzero"/><path fill="#000000" d="M 259.894531 31.9375 C 258.238281 31.9375 256.9375 31.4375 255.980469 30.429688 C 255.027344 29.425781 254.550781 28.03125 254.550781 26.242188 C 254.550781 24.441406 254.992188 23.011719 255.878906 21.953125 C 256.765625 20.894531 257.957031 20.363281 259.453125 20.363281 C 260.851562 20.363281 261.960938 20.824219 262.773438 21.746094 C 263.589844 22.664062 264 23.878906 264 25.382812 L 264 26.457031 L 256.304688 26.457031 C 256.335938 27.769531 256.667969 28.765625 257.296875 29.445312 C 257.925781 30.121094 258.8125 30.460938 259.953125 30.460938 C 261.15625 30.460938 262.34375 30.210938 263.515625 29.707031 L 263.515625 31.214844 C 262.917969 31.472656 262.355469 31.660156 261.820312 31.769531 C 261.289062 31.882812 260.648438 31.9375 259.894531 31.9375 Z M 259.433594 21.78125 C 258.535156 21.78125 257.820312 22.074219 257.285156 22.65625 C 256.753906 23.242188 256.4375 24.046875 256.34375 25.082031 L 262.183594 25.082031 C 262.183594 24.015625 261.945312 23.199219 261.46875 22.632812 C 260.992188 22.066406 260.316406 21.78125 259.433594 21.78125 Z M 259.433594 21.78125 " fill-opacity="1" fill-rule="nonzero"/><path fill="#000000" d="M 274.484375 30.238281 L 274.394531 30.238281 C 273.609375 31.371094 272.441406 31.9375 270.886719 31.9375 C 269.425781 31.9375 268.289062 31.441406 267.476562 30.441406 C 266.664062 29.445312 266.257812 28.023438 266.257812 26.183594 C 266.257812 24.34375 266.664062 22.914062 267.480469 21.894531 C 268.296875 20.875 269.433594 20.363281 270.886719 20.363281 C 272.402344 20.363281 273.5625 20.914062 274.375 22.011719 L 274.503906 22.011719 L 274.433594 21.207031 L 274.394531 20.421875 L 274.394531 15.875 L 276.082031 15.875 L 276.082031 31.734375 L 274.710938 31.734375 Z M 271.101562 30.519531 C 272.253906 30.519531 273.089844 30.207031 273.609375 29.578125 C 274.132812 28.953125 274.394531 27.9375 274.394531 26.539062 L 274.394531 26.183594 C 274.394531 24.601562 274.128906 23.472656 273.601562 22.796875 C 273.074219 22.121094 272.234375 21.78125 271.082031 21.78125 C 270.089844 21.78125 269.328125 22.164062 268.800781 22.933594 C 268.277344 23.707031 268.011719 24.792969 268.011719 26.203125 C 268.011719 27.628906 268.273438 28.703125 268.796875 29.429688 C 269.320312 30.15625 270.089844 30.519531 271.101562 30.519531 Z M 271.101562 30.519531 " fill-opacity="1" fill-rule="nonzero"/><path fill="#000000" d="M 281.363281 31.734375 L 279.671875 31.734375 L 279.671875 20.566406 L 281.363281 20.566406 Z M 279.527344 17.535156 C 279.527344 17.148438 279.621094 16.867188 279.808594 16.6875 C 280 16.507812 280.238281 16.417969 280.523438 16.417969 C 280.796875 16.417969 281.03125 16.507812 281.226562 16.695312 C 281.425781 16.875 281.527344 17.15625 281.527344 17.535156 C 281.527344 17.921875 281.425781 18.207031 281.226562 18.394531 C 281.03125 18.582031 280.796875 18.671875 280.523438 18.671875 C 280.238281 18.671875 280 18.582031 279.808594 18.394531 C 279.621094 18.207031 279.527344 17.921875 279.527344 17.535156 Z M 279.527344 17.535156 " fill-opacity="1" fill-rule="nonzero"/><path fill="#000000" d="M 288.558594 30.539062 C 288.855469 30.539062 289.144531 30.519531 289.421875 30.476562 C 289.703125 30.433594 289.925781 30.386719 290.085938 30.335938 L 290.085938 31.632812 C 289.902344 31.71875 289.628906 31.792969 289.273438 31.847656 C 288.917969 31.910156 288.597656 31.9375 288.3125 31.9375 C 286.148438 31.9375 285.070312 30.800781 285.070312 28.523438 L 285.070312 21.878906 L 283.472656 21.878906 L 283.472656 21.066406 L 285.070312 20.363281 L 285.785156 17.976562 L 286.765625 17.976562 L 286.765625 20.566406 L 290.003906 20.566406 L 290.003906 21.878906 L 286.765625 21.878906 L 286.765625 28.453125 C 286.765625 29.128906 286.921875 29.644531 287.242188 30.003906 C 287.5625 30.363281 288 30.539062 288.558594 30.539062 Z M 288.558594 30.539062 " fill-opacity="1" fill-rule="nonzero"/><path fill="#000000" d="M 301.957031 26.136719 C 301.957031 27.960938 301.496094 29.382812 300.578125 30.40625 C 299.660156 31.429688 298.394531 31.9375 296.78125 31.9375 C 295.78125 31.9375 294.894531 31.703125 294.117188 31.234375 C 293.34375 30.765625 292.746094 30.09375 292.324219 29.214844 C 291.902344 28.339844 291.695312 27.316406 291.695312 26.136719 C 291.695312 24.320312 292.148438 22.90625 293.058594 21.890625 C 293.96875 20.871094 295.234375 20.363281 296.855469 20.363281 C 298.414062 20.363281 299.652344 20.882812 300.574219 21.925781 C 301.496094 22.960938 301.957031 24.367188 301.957031 26.136719 Z M 293.449219 26.136719 C 293.449219 27.566406 293.730469 28.652344 294.300781 29.398438 C 294.871094 30.148438 295.710938 30.519531 296.820312 30.519531 C 297.925781 30.519531 298.769531 30.148438 299.34375 29.40625 C 299.917969 28.660156 300.207031 27.574219 300.207031 26.136719 C 300.207031 24.71875 299.917969 23.644531 299.34375 22.90625 C 298.769531 22.167969 297.921875 21.800781 296.800781 21.800781 C 295.691406 21.800781 294.855469 22.164062 294.292969 22.890625 C 293.730469 23.617188 293.449219 24.699219 293.449219 26.136719 Z M 293.449219 26.136719 " fill-opacity="1" fill-rule="nonzero"/><path fill="#000000" d="M 310.019531 20.363281 C 310.515625 20.363281 310.960938 20.40625 311.355469 20.488281 L 311.121094 22.054688 C 310.65625 21.953125 310.25 21.898438 309.898438 21.898438 C 308.996094 21.898438 308.222656 22.265625 307.578125 23 C 306.933594 23.734375 306.613281 24.648438 306.613281 25.742188 L 306.613281 31.734375 L 304.925781 31.734375 L 304.925781 20.566406 L 306.316406 20.566406 L 306.511719 22.632812 L 306.59375 22.632812 C 307.007812 21.90625 307.507812 21.347656 308.09375 20.953125 C 308.675781 20.558594 309.320312 20.363281 310.019531 20.363281 Z M 310.019531 20.363281 " fill-opacity="1" fill-rule="nonzero"/><path fill="#000000" d="M 320.308594 31.734375 L 319.972656 30.144531 L 319.894531 30.144531 C 319.335938 30.84375 318.777344 31.320312 318.222656 31.566406 C 317.667969 31.816406 316.980469 31.9375 316.15625 31.9375 C 315.046875 31.9375 314.179688 31.65625 313.546875 31.085938 C 312.917969 30.515625 312.605469 29.703125 312.605469 28.648438 C 312.605469 26.394531 314.410156 25.210938 318.019531 25.101562 L 319.914062 25.039062 L 319.914062 24.347656 C 319.914062 23.46875 319.722656 22.820312 319.347656 22.40625 C 318.972656 21.988281 318.367188 21.78125 317.539062 21.78125 C 316.609375 21.78125 315.554688 22.066406 314.378906 22.632812 L 313.859375 21.339844 C 314.410156 21.042969 315.015625 20.808594 315.667969 20.640625 C 316.324219 20.46875 316.980469 20.382812 317.640625 20.382812 C 318.972656 20.382812 319.960938 20.679688 320.601562 21.269531 C 321.242188 21.863281 321.5625 22.808594 321.5625 24.109375 L 321.5625 31.734375 Z M 316.488281 30.539062 C 317.539062 30.539062 318.367188 30.253906 318.972656 29.679688 C 319.570312 29.101562 319.875 28.292969 319.875 27.253906 L 319.875 26.242188 L 318.183594 26.3125 C 316.835938 26.359375 315.867188 26.570312 315.273438 26.941406 C 314.675781 27.3125 314.378906 27.886719 314.378906 28.667969 C 314.378906 29.277344 314.566406 29.746094 314.933594 30.066406 C 315.304688 30.382812 315.824219 30.539062 316.488281 30.539062 Z M 316.488281 30.539062 " fill-opacity="1" fill-rule="nonzero"/></svg>